<?xml version="1.0" encoding="utf-8"?>
<!-- Generator: Adobe Illustrator 17.0.0, SVG Export Plug-In . SVG Version: 6.00 Build 0)  -->
<!DOCTYPE svg PUBLIC "-//W3C//DTD SVG 1.1//EN" "http://www.w3.org/Graphics/SVG/1.1/DTD/svg11.dtd">
<svg version="1.1"
	 id="Capa_1" xmlns:sodipodi="http://sodipodi.sourceforge.net/DTD/sodipodi-0.dtd" xmlns:svg="http://www.w3.org/2000/svg" xmlns:cc="http://creativecommons.org/ns#" xmlns:rdf="http://www.w3.org/1999/02/22-rdf-syntax-ns#" xmlns:inkscape="http://www.inkscape.org/namespaces/inkscape" xmlns:dc="http://purl.org/dc/elements/1.1/"
	 xmlns="http://www.w3.org/2000/svg" xmlns:xlink="http://www.w3.org/1999/xlink" x="0px" y="0px" width="72px" height="72px"
	 viewBox="0 0 72 72" enable-background="new 0 0 72 72" xml:space="preserve">
<rect fill="#12682A" width="72" height="72"/>
<g transform="translate(131.02975,-196.70833)">
	<path fill="#E2CB5A" d="M-96.352,204.485c-2.015,0-3.662,1.644-3.662,3.657c0,0.503,0.103,0.985,0.288,1.423
		c0.121,0.285,0.277,0.55,0.462,0.793c-0.11,0.029-0.195,0.053-0.255,0.071c-0.106,0.017-0.205,0.063-0.287,0.133
		c-0.254,0.203-0.295,0.573-0.092,0.827c0.005,0.006,0.01,0.012,0.015,0.017l0.899,1.786c-0.363,0.275-0.603,0.701-0.603,1.186
		c0,0.715,0.52,1.303,1.19,1.464c-0.05,0.159-0.077,0.328-0.074,0.503l0.009,0.674c0,0.002,0,0.004,0,0.007l0.004,0.057
		c-2.654,0.499-4.905,2.291-5.459,4.815c-0.002,0.008-0.003,0.016-0.004,0.024c-0.364,2.064,0.143,3.741,1.103,5.037
		c0.961,1.296,2.334,2.231,3.72,3.029c0.173,0.1,0.347,0.197,0.52,0.293c0.104,0.058,0.207,0.113,0.31,0.17l0.03,2.091l0.038,2.7
		l0.02,1.35l0.004,0.31c-0.914,0.476-1.822,1.029-2.581,1.738c-0.927,0.866-1.629,1.998-1.733,3.421
		c-0.002,0.014-0.003,0.028-0.004,0.042c0,1.294,0.669,2.323,1.569,3.069c0.225,0.186,0.464,0.359,0.715,0.519
		c0.25,0.16,0.51,0.309,0.777,0.449c0.267,0.14,0.54,0.271,0.816,0.395c0.193,0.087,0.386,0.169,0.58,0.249l0.028,1.956l0.038,2.7
		l0.02,1.35l0.009,0.675c0,0.022,0.002,0.044,0.004,0.066l-0.004,0.004c-0.917,0.932-1.719,1.924-1.839,3.106
		c-0.113,1.12,0.528,2.248,1.969,3.224c0.166,0.634,0.789,1.07,1.466,1.07c0.767,0,1.465-0.561,1.506-1.334
		c0.003-0.02,0.004-0.041,0.004-0.062l0.038-2.7l0.02-1.349l0.015-1.009c0.878-0.73,1.825-1.48,2.611-2.285
		c0.89-0.913,1.612-1.929,1.612-3.13c0-1.342-0.656-2.388-1.546-3.125c-0.223-0.184-0.459-0.353-0.707-0.509
		c-0.247-0.156-0.504-0.299-0.767-0.432c-0.263-0.133-0.532-0.257-0.803-0.374c-0.086-0.037-0.173-0.073-0.259-0.109l0.015-1.176
		l0.038-2.699l0.02-1.35l0.004-0.309c1.035-0.545,2.072-1.159,2.903-1.941c0.921-0.866,1.595-1.985,1.595-3.359
		c0-1.422-0.852-2.577-1.965-3.526c-0.139-0.119-0.283-0.234-0.431-0.348c-0.148-0.114-0.3-0.226-0.455-0.336
		c-0.155-0.11-0.312-0.219-0.473-0.326c-0.161-0.107-0.324-0.212-0.49-0.316c-0.165-0.104-0.333-0.207-0.501-0.309
		c-0.013-0.007-0.024-0.015-0.036-0.022l0.02-1.357l0.077-5.399l0.004-0.276c0.417,0.306,0.837,0.694,1.248,1.173
		c0.283,0.942,0.796,1.576,1.358,2.007c0.589,0.451,1.199,0.71,1.718,1.036c0.369,0.232,0.886,0.649,1.458,0.95
		c0.286,0.15,0.593,0.278,0.941,0.313c0.348,0.035,0.754-0.051,1.069-0.305c0.295-0.237,0.451-0.602,0.478-0.921
		c0.027-0.319-0.036-0.607-0.117-0.879c-0.16-0.543-0.411-1.059-0.488-1.348c-0.68-2.534-2.954-3.154-3.75-3.295
		c-0.592-0.734-1.246-1.337-1.941-1.813c-0.615-0.422-1.26-0.744-1.917-0.976l0.004-0.39l0.009-0.674
		c0.004-0.175-0.024-0.343-0.074-0.502c0.669-0.16,1.189-0.748,1.189-1.464c0-0.485-0.24-0.912-0.603-1.186l0.963-1.911
		c0.15-0.288,0.039-0.643-0.249-0.794c-0.064-0.034-0.135-0.055-0.207-0.063c-0.059-0.017-0.138-0.04-0.237-0.066
		c0.185-0.242,0.341-0.508,0.462-0.793c0.186-0.438,0.288-0.92,0.288-1.423c0-2.013-1.648-3.657-3.663-3.657L-96.352,204.485z
		 M-98.408,220.762l0.004,0.306l0.009,0.675l0.062,4.385c-0.389-0.271-0.741-0.542-1.035-0.814
		c-0.837-0.773-1.191-1.435-0.983-2.281c0.256-1.036,0.974-1.864,1.942-2.271H-98.408z M-94.454,232.729
		c0.519,0.453,0.814,0.9,0.867,1.374c-0.004,0.127-0.045,0.245-0.205,0.422c-0.147,0.162-0.389,0.348-0.695,0.538L-94.454,232.729z
		 M-98.122,240.897l0.032,2.207c-0.343-0.185-0.607-0.375-0.762-0.547c-0.161-0.179-0.216-0.312-0.216-0.498
		c0-0.177,0.064-0.346,0.25-0.568C-98.663,241.307-98.422,241.104-98.122,240.897L-98.122,240.897z M-94.674,248.156
		c0.297,0.155,0.533,0.307,0.671,0.436c0.164,0.153,0.186,0.228,0.186,0.3c0,0.369-0.327,0.933-0.89,1.569l0.024-1.722
		L-94.674,248.156z"/>
</g>
</svg>
